REM DIRINDEX 1\2,1\3
REM DIRNAME cjc143,folder01,folder02
TITLE ""
FILE "2000 phrasesTrack06.mp3" MP3
  TRACK 01 AUDIO
    TITLE "2:cjc143_0200"
    INDEX 01 00:00:00
  TRACK 02 AUDIO
    TITLE "0:"
    INDEX 01 00:00:66
  TRACK 03 AUDIO
    TITLE "2:cjc143_0201"
    INDEX 01 00:01:32
  TRACK 04 AUDIO
    TITLE "0:"
    INDEX 01 00:02:69
  TRACK 05 AUDIO
    TITLE "2:cjc143_0202"
    INDEX 01 00:03:02
  TRACK 06 AUDIO
    TITLE "0:"
    INDEX 01 00:04:48
  TRACK 07 AUDIO
    TITLE "2:cjc143_0203"
    INDEX 01 00:04:58
  TRACK 08 AUDIO
    TITLE "0:"
    INDEX 01 00:06:30
  TRACK 09 AUDIO
    TITLE "2:cjc143_0204"
    INDEX 01 00:06:35
  TRACK 10 AUDIO
    TITLE "0:"
    INDEX 01 00:07:64
  TRACK 11 AUDIO
    TITLE "2:cjc143_0205"
    INDEX 01 00:07:68
  TRACK 12 AUDIO
    TITLE "0:"
    INDEX 01 00:09:32
  TRACK 13 AUDIO
    TITLE "2:cjc143_0206"
    INDEX 01 00:09:38
  TRACK 14 AUDIO
    TITLE "0:"
    INDEX 01 00:11:01
  TRACK 15 AUDIO
    TITLE "2:cjc143_0207"
    INDEX 01 00:11:07
  TRACK 16 AUDIO
    TITLE "0:"
    INDEX 01 00:12:67
  TRACK 17 AUDIO
    TITLE "2:cjc143_0208"
    INDEX 01 00:12:73
  TRACK 18 AUDIO
    TITLE "0:"
    INDEX 01 00:14:25
  TRACK 19 AUDIO
    TITLE "2:cjc143_0209"
    INDEX 01 00:14:31
  TRACK 20 AUDIO
    TITLE "0:"
    INDEX 01 00:15:70
  TRACK 21 AUDIO
    TITLE "2:cjc143_0210"
    INDEX 01 00:16:00
  TRACK 22 AUDIO
    TITLE "0:"
    INDEX 01 00:17:29
  TRACK 23 AUDIO
    TITLE "2:cjc143_0211"
    INDEX 01 00:17:39
  TRACK 24 AUDIO
    TITLE "0:"
    INDEX 01 00:18:72
  TRACK 25 AUDIO
    TITLE "2:cjc143_0212"
    INDEX 01 00:19:73
  TRACK 26 AUDIO
    TITLE "0:"
    INDEX 01 00:21:23
  TRACK 27 AUDIO
    TITLE "2:cjc143_0213"
    INDEX 01 00:21:31
  TRACK 28 AUDIO
    TITLE "0:"
    INDEX 01 00:22:70
  TRACK 29 AUDIO
    TITLE "2:cjc143_0214"
    INDEX 01 00:22:74
  TRACK 30 AUDIO
    TITLE "0:"
    INDEX 01 00:24:29
  TRACK 31 AUDIO
    TITLE "2:cjc143_0215"
    INDEX 01 00:24:35
  TRACK 32 AUDIO
    TITLE "0:"
    INDEX 01 00:26:34
  TRACK 33 AUDIO
    TITLE "2:cjc143_0216"
    INDEX 01 00:26:40
  TRACK 34 AUDIO
    TITLE "0:"
    INDEX 01 00:27:67
  TRACK 35 AUDIO
    TITLE "2:cjc143_0217"
    INDEX 01 00:28:00
  TRACK 36 AUDIO
    TITLE "0:"
    INDEX 01 00:29:27
  TRACK 37 AUDIO
    TITLE "2:cjc143_0218"
    INDEX 01 00:29:34
  TRACK 38 AUDIO
    TITLE "0:"
    INDEX 01 00:30:59
  TRACK 39 AUDIO
    TITLE "2:cjc143_0219"
    INDEX 01 00:30:73
  TRACK 40 AUDIO
    TITLE "0:"
    INDEX 01 00:32:23
  TRACK 41 AUDIO
    TITLE "2:cjc143_0220"
    INDEX 01 00:32:66
  TRACK 42 AUDIO
    TITLE "0:"
    INDEX 01 00:34:10
  TRACK 43 AUDIO
    TITLE "2:cjc143_0221"
    INDEX 01 00:34:18
  TRACK 44 AUDIO
    TITLE "0:"
    INDEX 01 00:35:57
  TRACK 45 AUDIO
    TITLE "2:cjc143_0222"
    INDEX 01 00:35:63
  TRACK 46 AUDIO
    TITLE "0:"
    INDEX 01 00:37:28
  TRACK 47 AUDIO
    TITLE "2:cjc143_0223"
    INDEX 01 00:37:34
  TRACK 48 AUDIO
    TITLE "0:"
    INDEX 01 00:39:07
  TRACK 49 AUDIO
    TITLE "2:cjc143_0224"
    INDEX 01 00:39:52
  TRACK 50 AUDIO
    TITLE "0:"
    INDEX 01 00:41:30
  TRACK 51 AUDIO
    TITLE "2:cjc143_0225"
    INDEX 01 00:41:38
  TRACK 52 AUDIO
    TITLE "0:"
    INDEX 01 00:42:61
  TRACK 53 AUDIO
    TITLE "2:cjc143_0226"
    INDEX 01 00:42:70
  TRACK 54 AUDIO
    TITLE "0:"
    INDEX 01 00:44:16
  TRACK 55 AUDIO
    TITLE "2:cjc143_0227"
    INDEX 01 00:44:22
  TRACK 56 AUDIO
    TITLE "0:"
    INDEX 01 00:45:65
  TRACK 57 AUDIO
    TITLE "2:cjc143_0228"
    INDEX 01 00:46:02
  TRACK 58 AUDIO
    TITLE "0:"
    INDEX 01 00:47:60
  TRACK 59 AUDIO
    TITLE "2:cjc143_0229"
    INDEX 01 00:47:64
  TRACK 60 AUDIO
    TITLE "0:"
    INDEX 01 00:49:49
  TRACK 61 AUDIO
    TITLE "2:cjc143_0230"
    INDEX 01 00:50:17
  TRACK 62 AUDIO
    TITLE "0:"
    INDEX 01 00:51:67
  TRACK 63 AUDIO
    TITLE "2:cjc143_0231"
    INDEX 01 00:51:71
  TRACK 64 AUDIO
    TITLE "0:"
    INDEX 01 00:53:23
